<svg width="152" height="120" viewBox="0 0 152 120" fill="none" xmlns="http://www.w3.org/2000/svg">
<path d="M65.9985 81.4432C67.3247 86.1094 71.0095 92.8096 71.0095 92.8096C71.0095 92.8096 60.7089 89.5403 54.7543 90.6096C48.9273 91.656 41.7989 94.8874 42.5323 97.6984C43.4889 101.365 49.6212 94.0318 58.1764 94.0318C67.8319 94.0318 71.8235 97.5891 74.6761 99.7761C80.1761 103.993 81.3984 108.725 90.8092 114.32C95.3315 117.009 97.7758 117.865 108.164 119.698C113.787 120.69 127.598 119.454 137.742 112.731C143.54 108.889 149.353 104.176 150.941 100.754C151.584 99.3685 152.897 97.9428 150.941 96.8429C148.551 95.4984 146.412 102.101 142.997 104.909C137.171 109.701 134.564 112.609 126.131 114.565C116.263 116.853 109.765 116.506 100.22 113.098C94.8891 111.195 91.9077 109.695 87.5092 106.132C84.0188 103.304 82.1227 101.473 79.6871 97.6984C76.6005 92.9152 76.7367 91.4929 74.6761 84.0098C72.3539 75.5766 75.8983 69.4417 72.8428 68.2434C66.6096 65.799 62.6986 69.8323 65.9985 81.4432Z" fill="white" fill-opacity="0.47"/>
<path d="M30.3866 60.0983C15.9137 64.171 2.88956 79.325 3.92025 81.8697C4.95094 84.4144 24.3639 92.0318 39.8196 87.0097C55.2752 81.9875 66.5277 66.9874 66.1166 65.2044C65.7055 63.4214 44.8595 56.0255 30.3866 60.0983Z" fill="white" fill-opacity="0.47"/>
<path d="M103.385 64.1404C89.4186 69.7064 69.8646 65.5938 69.1357 62.9468C68.4069 60.2998 79.1881 42.449 94.5124 37.0392C109.837 31.6294 127.891 36.6971 128.648 38.3626C129.406 40.0281 117.352 58.5744 103.385 64.1404Z" fill="white" fill-opacity="0.47"/>
<path d="M95.7173 42.0062C88.4833 55.1865 70.7808 64.4545 68.5344 62.8761C66.288 61.2977 63.2484 40.6664 71.6292 26.743C80.01 12.8195 97.1627 5.24277 98.8069 6.04566C100.451 6.84854 102.951 28.8259 95.7173 42.0062Z" fill="white" fill-opacity="0.47"/>
<path d="M42.9779 37.1121C29.0697 31.4012 9.47406 35.3103 8.7177 37.9495C7.96134 40.5888 18.5565 58.5508 33.8237 64.1196C49.0909 69.6884 67.1965 64.8087 67.9714 63.1511C68.7463 61.4936 56.8861 42.823 42.9779 37.1121Z" fill="white" fill-opacity="0.47"/>
<path d="M71.3764 30.5998C76.0208 44.8995 70.6431 64.144 67.9543 64.6989C65.2654 65.2538 48.1548 53.3326 43.7548 37.6885C39.3547 22.0444 45.5877 4.35897 47.299 3.7114C49.0104 3.06384 66.7321 16.3001 71.3764 30.5998Z" fill="white" fill-opacity="0.47"/>
</svg>
